<?xml version="1.0" encoding="UTF-8" ?>
<!DOCTYPE svg PUBLIC "-//W3C//DTD SVG 1.1//EN" "http://www.w3.org/Graphics/SVG/1.1/DTD/svg11.dtd">
<svg width="1000pt" height="650pt" viewBox="0 0 1000 650" version="1.1" xmlns="http://www.w3.org/2000/svg">
<g id="#485b67ff">
<path fill="#485b67" opacity="1.00" d=" M 191.15 0.00 L 807.35 0.00 C 807.34 9.41 807.35 18.82 807.34 28.23 C 601.95 28.24 396.55 28.24 191.16 28.23 C 191.15 18.82 191.15 9.41 191.15 0.00 Z" />
<path fill="#485b67" opacity="1.00" d=" M 594.69 67.53 C 609.70 65.93 625.23 69.70 637.72 78.21 C 654.82 89.58 666.22 109.40 666.40 130.05 C 666.49 140.84 671.17 151.58 679.32 158.71 C 686.98 165.59 697.78 168.99 707.97 167.17 C 725.04 164.35 739.12 148.43 739.13 131.00 C 739.03 111.85 748.50 93.20 763.41 81.34 C 776.01 71.29 792.72 65.40 808.86 67.85 C 808.79 77.16 808.94 86.47 808.78 95.78 C 787.79 91.05 766.37 109.93 766.14 130.94 C 766.00 150.62 756.72 169.97 741.45 182.38 C 729.66 192.13 714.27 197.57 698.94 196.81 C 682.05 196.13 665.80 188.03 654.55 175.51 C 644.07 164.01 637.87 148.63 637.93 133.04 C 638.06 114.57 622.33 97.68 603.89 96.55 C 584.06 94.53 565.55 112.29 565.24 131.92 C 565.29 145.43 560.81 158.86 552.74 169.69 C 542.27 183.98 525.80 193.89 508.11 195.76 C 493.14 197.48 477.71 193.23 465.45 184.55 C 448.83 172.97 437.85 153.34 437.80 132.96 C 438.14 113.70 421.18 96.13 401.94 95.70 C 384.83 95.18 368.88 108.40 365.17 124.92 C 364.02 129.54 364.49 134.34 363.94 139.03 C 362.21 155.34 353.65 170.66 341.08 181.13 C 330.20 190.31 316.20 195.84 301.93 196.11 C 287.90 196.47 273.91 191.70 262.76 183.24 C 249.07 172.96 239.50 157.17 237.38 140.13 C 236.65 135.10 237.25 129.95 236.03 124.98 C 233.10 111.99 222.75 101.04 210.03 97.18 C 204.42 95.42 198.41 95.34 192.64 96.28 C 192.67 87.11 192.64 77.94 192.66 68.77 C 208.40 66.07 224.80 71.11 237.51 80.48 C 253.67 92.32 264.06 111.90 263.88 132.04 C 263.98 151.42 281.64 168.75 301.04 168.40 C 320.13 168.22 337.23 151.08 337.32 131.98 C 337.23 116.44 343.33 101.10 353.71 89.59 C 364.45 77.50 379.80 69.47 395.98 68.18 C 410.31 66.92 424.94 71.06 436.71 79.27 C 451.00 89.12 461.27 104.81 463.98 122.00 C 465.17 128.32 464.15 134.92 466.12 141.11 C 470.56 156.59 485.70 168.67 501.98 168.40 C 519.64 168.18 535.64 153.55 537.91 136.13 C 538.44 131.41 538.14 126.62 539.00 121.94 C 541.92 103.05 553.79 85.86 570.27 76.23 C 577.73 71.70 586.22 69.30 594.69 67.53 Z" />
<path fill="#485b67" opacity="1.00" d=" M 247.46 226.68 C 257.51 223.80 268.73 231.49 269.71 241.88 C 271.25 251.79 263.01 261.73 252.99 262.06 C 243.71 262.87 234.76 255.31 234.00 246.04 C 232.86 237.40 239.00 228.66 247.46 226.68 Z" />
<path fill="#485b67" opacity="1.00" d=" M 493.45 226.66 C 502.43 222.74 513.59 228.07 516.82 237.15 C 519.28 243.47 517.74 251.16 512.95 255.98 C 507.79 261.35 499.12 262.92 492.43 259.61 C 485.86 256.52 481.38 249.25 482.08 241.94 C 482.58 235.23 487.25 229.16 493.45 226.66 Z" />
<path fill="#485b67" opacity="1.00" d=" M 743.38 226.58 C 751.85 224.46 761.27 229.54 764.20 237.75 C 766.93 244.70 764.71 253.17 758.93 257.89 C 753.13 262.91 744.05 263.49 737.67 259.24 C 731.67 255.50 728.35 248.00 729.66 241.04 C 730.77 234.03 736.46 228.09 743.38 226.58 Z" />
<path fill="#485b67" opacity="1.00" d=" M 372.38 298.53 C 381.09 296.37 390.71 301.84 393.37 310.39 C 395.82 317.44 393.28 325.82 387.31 330.30 C 381.56 334.89 372.92 335.31 366.75 331.30 C 360.94 327.74 357.56 320.69 358.46 313.94 C 359.22 306.53 365.11 300.07 372.38 298.53 Z" />
<path fill="#485b67" opacity="1.00" d=" M 619.43 298.61 C 625.46 297.09 632.19 298.98 636.51 303.47 C 640.99 307.94 642.76 314.86 641.00 320.94 C 639.50 326.40 635.27 331.01 629.95 332.94 C 624.25 335.10 617.48 334.08 612.70 330.30 C 607.47 326.35 604.76 319.40 605.98 312.96 C 607.09 306.06 612.64 300.19 619.43 298.61 Z" />
<path fill="#485b67" opacity="1.00" d=" M 161.24 374.33 C 168.62 374.34 176.01 374.31 183.39 374.35 C 183.37 411.57 183.40 448.80 183.37 486.03 C 183.42 493.61 182.64 501.16 182.52 508.74 C 183.62 507.74 184.65 506.68 185.52 505.48 C 196.24 491.04 209.11 478.43 221.34 465.32 C 230.45 455.76 239.39 446.04 248.59 436.58 C 257.40 435.98 266.35 436.51 275.21 436.33 C 255.40 457.39 235.33 478.21 215.43 499.18 C 236.78 527.43 258.15 555.67 279.50 583.93 C 270.44 583.90 261.38 584.01 252.33 583.87 C 235.05 560.57 217.57 537.42 200.21 514.17 C 194.60 518.97 189.05 523.84 183.42 528.62 C 183.33 547.05 183.41 565.49 183.38 583.93 C 176.00 583.93 168.62 583.94 161.23 583.93 C 161.24 514.06 161.23 444.20 161.24 374.33 Z" />
<path fill="#485b67" opacity="1.00" d=" M 545.08 374.33 C 552.56 374.34 560.04 374.32 567.52 374.34 C 567.52 444.20 567.51 514.06 567.52 583.92 C 560.04 583.94 552.55 583.93 545.07 583.93 C 545.08 514.06 545.06 444.20 545.08 374.33 Z" />
<path fill="#485b67" opacity="1.00" d=" M 312.17 382.23 C 318.43 379.86 326.70 382.32 329.24 388.89 C 331.23 394.33 331.20 400.97 327.97 405.94 C 322.87 413.46 309.55 412.85 305.78 404.33 C 302.65 396.90 303.59 385.49 312.17 382.23 Z" />
<path fill="#485b67" opacity="1.00" d=" M 10.85 406.94 C 20.79 393.21 37.71 386.40 54.13 384.69 C 76.25 382.56 98.96 385.94 119.36 394.83 C 117.01 401.51 114.48 408.13 112.24 414.86 C 94.49 407.64 75.17 402.98 55.93 405.15 C 46.46 406.24 36.62 410.01 30.88 417.99 C 25.65 425.13 25.31 434.59 26.91 442.99 C 27.81 448.21 30.54 453.01 34.39 456.63 C 42.42 464.46 53.13 468.53 63.39 472.54 C 78.43 477.97 93.86 483.41 106.67 493.26 C 115.51 500.01 121.69 510.11 123.41 521.12 C 125.66 535.11 123.72 550.46 115.20 562.14 C 107.33 573.02 94.98 579.86 82.17 583.22 C 68.47 586.88 54.13 587.03 40.06 586.29 C 26.52 585.49 12.84 583.35 0.38 577.77 C 0.26 570.35 0.35 562.93 0.33 555.52 C 20.67 563.93 42.96 567.97 64.95 566.11 C 75.47 565.11 86.59 562.04 93.98 554.03 C 101.54 545.89 102.64 533.60 99.88 523.24 C 97.72 515.31 91.17 509.62 84.38 505.52 C 64.95 493.89 41.40 490.69 23.21 476.76 C 13.02 469.55 5.92 458.29 3.96 445.96 C 1.58 432.75 2.66 418.06 10.85 406.94 Z" />
<path fill="#485b67" opacity="1.00" d=" M 402.41 451.50 C 413.33 438.81 430.64 433.23 447.03 433.63 C 461.12 433.77 476.45 436.83 486.63 447.34 C 496.43 457.55 499.06 472.37 499.26 486.02 C 499.32 518.65 499.28 551.29 499.29 583.93 C 491.78 583.93 484.28 583.93 476.78 583.93 C 476.78 552.30 476.79 520.66 476.78 489.03 C 476.77 479.79 475.52 469.82 469.47 462.44 C 463.78 455.53 454.51 453.01 445.90 452.71 C 435.01 452.31 423.38 453.76 414.30 460.25 C 407.38 465.11 403.21 472.93 401.10 480.95 C 397.94 492.35 398.14 504.28 398.20 515.99 C 398.19 538.64 398.20 561.28 398.19 583.93 C 390.71 583.93 383.23 583.93 375.75 583.93 C 375.73 534.74 375.77 485.55 375.73 436.36 C 381.83 436.29 387.93 436.35 394.04 436.33 C 395.31 443.20 396.35 450.12 397.77 456.96 C 399.63 455.42 400.89 453.34 402.41 451.50 Z" />
<path fill="#485b67" opacity="1.00" d=" M 920.97 435.90 C 935.02 432.28 950.33 432.85 963.93 438.08 C 979.56 444.12 991.04 458.28 995.96 474.05 C 1000.27 486.97 999.71 500.74 999.67 514.17 C 965.73 514.17 931.79 514.16 897.86 514.17 C 898.30 528.21 901.39 543.16 911.24 553.77 C 919.49 562.92 932.06 566.81 944.09 567.11 C 960.96 567.65 977.79 563.90 993.22 557.19 C 993.22 563.81 993.22 570.43 993.22 577.06 C 979.39 583.37 964.26 586.61 949.07 586.60 C 931.46 587.29 912.89 583.37 899.10 571.83 C 884.99 560.52 877.37 542.85 875.47 525.16 C 873.51 506.50 874.86 486.94 882.69 469.67 C 889.90 453.71 903.83 440.43 920.97 435.90 M 912.96 461.89 C 903.52 470.56 899.54 483.50 898.44 495.93 C 924.22 495.93 950.00 495.95 975.78 495.92 C 975.68 484.64 973.79 472.57 966.33 463.65 C 960.49 456.41 951.21 452.75 942.07 452.41 C 931.66 451.73 920.64 454.56 912.96 461.89 Z" />
<path fill="#485b67" opacity="1.00" d=" M 305.99 436.33 C 313.49 436.34 320.99 436.31 328.49 436.35 C 328.47 485.54 328.49 534.74 328.48 583.93 C 320.98 583.93 313.48 583.93 305.98 583.93 C 305.99 534.73 305.96 485.53 305.99 436.33 Z" />
<path fill="#485b67" opacity="1.00" d=" M 591.44 436.34 C 599.44 436.32 607.43 436.33 615.43 436.34 C 625.73 463.13 636.02 489.92 646.33 516.70 C 651.91 531.80 657.40 546.99 661.18 562.66 C 663.01 559.94 663.40 556.63 664.41 553.58 C 669.61 536.80 675.74 520.34 681.62 503.79 C 689.76 481.30 697.83 458.79 706.02 436.32 C 713.98 436.35 721.94 436.32 729.91 436.33 C 710.32 488.28 690.71 540.21 671.11 592.16 C 665.43 607.20 660.13 622.98 649.25 635.21 C 641.78 643.80 630.83 648.90 619.57 650.00 L 606.44 650.00 C 602.01 649.64 597.63 648.88 593.28 648.02 C 593.28 642.05 593.28 636.07 593.27 630.11 C 605.10 632.12 618.70 633.49 628.86 625.75 C 640.23 617.41 643.50 603.01 648.69 590.71 C 649.48 588.14 651.63 585.45 650.26 582.72 C 630.60 533.95 611.06 485.13 591.44 436.34 Z" />
<path fill="#485b67" opacity="1.00" d=" M 746.26 436.33 C 779.64 436.35 813.03 436.30 846.41 436.35 C 846.38 442.16 846.43 447.97 846.38 453.78 C 819.86 491.35 793.41 528.96 766.95 566.56 C 794.08 566.57 821.22 566.56 848.36 566.57 C 848.36 572.36 848.36 578.14 848.36 583.93 C 812.66 583.93 776.97 583.94 741.28 583.93 C 741.45 578.78 740.93 573.58 741.51 568.47 C 768.13 530.13 795.09 491.99 821.81 453.70 C 796.63 453.69 771.44 453.71 746.26 453.70 C 746.25 447.91 746.25 442.12 746.26 436.33 Z" />
</g>
</svg>
